<svg width="37" height="33" viewBox="0 0 37 33" fill="none" xmlns="http://www.w3.org/2000/svg">
<path d="M1.24388 20.1178C1.87909 20.1178 2.39402 20.5727 2.39402 21.1339V26.2143C2.39402 27.3367 3.42388 28.2465 4.69429 28.2465H32.2975C33.5679 28.2465 34.5978 27.3367 34.5978 26.2143V21.1339C34.5978 20.5727 35.1127 20.1178 35.7479 20.1178C36.3831 20.1178 36.898 20.5727 36.898 21.1339V26.2143C36.898 28.459 34.8383 30.2787 32.2975 30.2787H4.69429C2.15348 30.2787 0.09375 28.459 0.09375 26.2143V21.1339C0.09375 20.5727 0.608683 20.1178 1.24388 20.1178Z" fill="#4F4F4F"/>
<path d="M17.6826 2.32886C18.1318 1.93205 18.86 1.93205 19.3092 2.32886L26.21 8.42542C26.6591 8.82223 26.6591 9.46559 26.21 9.86239C25.7608 10.2592 25.0326 10.2592 24.5834 9.86239L19.646 5.50041V23.3692C19.646 23.9304 19.1311 24.3853 18.4959 24.3853C17.8607 24.3853 17.3458 23.9304 17.3458 23.3692V5.50041L12.4084 9.86239C11.9592 10.2592 11.231 10.2592 10.7818 9.86239C10.3327 9.46559 10.3327 8.82223 10.7818 8.42542L17.6826 2.32886Z" fill="#4F4F4F"/>
</svg>
